<mxfile host="app.diagrams.net" modified="2022-05-02T09:10:34.785Z" agent="5.0 (Windows)" etag="cHbV_7Oq9DxVuN4oFnBe" version="17.5.0" type="github">
  <diagram id="cRJMM40CJe79zqzZw_mR" name="Page-1">
    <mxGraphModel dx="1422" dy="681" grid="1" gridSize="10" guides="1" tooltips="1" connect="1" arrows="1" fold="1" page="1" pageScale="1" pageWidth="827" pageHeight="1169" math="0" shadow="0">
      <root>
        <mxCell id="0" />
        <mxCell id="1" parent="0" />
        <mxCell id="CNSOVZ5Ffk4rTk_nyZbC-1" value="Microservice de visioconférence" style="rounded=0;whiteSpace=wrap;html=1;" vertex="1" parent="1">
          <mxGeometry x="40" y="160" width="360" height="100" as="geometry" />
        </mxCell>
        <mxCell id="CNSOVZ5Ffk4rTk_nyZbC-2" value="Microservice de gestion de sessions" style="rounded=0;whiteSpace=wrap;html=1;" vertex="1" parent="1">
          <mxGeometry x="440" y="160" width="360" height="100" as="geometry" />
        </mxCell>
        <mxCell id="CNSOVZ5Ffk4rTk_nyZbC-3" value="&lt;span style=&quot;white-space: pre&quot;&gt;	&lt;/span&gt;Serveur de base de données de gestions de sessions" style="shape=cylinder3;whiteSpace=wrap;html=1;boundedLbl=1;backgroundOutline=1;size=15;" vertex="1" parent="1">
          <mxGeometry x="505" y="360" width="230" height="180" as="geometry" />
        </mxCell>
        <mxCell id="CNSOVZ5Ffk4rTk_nyZbC-4" value="" style="endArrow=classic;html=1;rounded=0;entryX=0.5;entryY=0;entryDx=0;entryDy=0;entryPerimeter=0;exitX=0.5;exitY=1;exitDx=0;exitDy=0;" edge="1" parent="1" source="CNSOVZ5Ffk4rTk_nyZbC-2" target="CNSOVZ5Ffk4rTk_nyZbC-3">
          <mxGeometry width="50" height="50" relative="1" as="geometry">
            <mxPoint x="390" y="370" as="sourcePoint" />
            <mxPoint x="440" y="320" as="targetPoint" />
          </mxGeometry>
        </mxCell>
        <mxCell id="CNSOVZ5Ffk4rTk_nyZbC-6" value="" style="endArrow=classic;html=1;rounded=0;entryX=0;entryY=0.5;entryDx=0;entryDy=0;exitX=1;exitY=0.5;exitDx=0;exitDy=0;" edge="1" parent="1" source="CNSOVZ5Ffk4rTk_nyZbC-1" target="CNSOVZ5Ffk4rTk_nyZbC-2">
          <mxGeometry width="50" height="50" relative="1" as="geometry">
            <mxPoint x="390" y="370" as="sourcePoint" />
            <mxPoint x="440" y="320" as="targetPoint" />
          </mxGeometry>
        </mxCell>
        <mxCell id="CNSOVZ5Ffk4rTk_nyZbC-7" value="" style="endArrow=none;html=1;rounded=0;exitX=0.25;exitY=0;exitDx=0;exitDy=0;" edge="1" parent="1">
          <mxGeometry width="50" height="50" relative="1" as="geometry">
            <mxPoint x="81" y="160" as="sourcePoint" />
            <mxPoint x="81" y="120" as="targetPoint" />
          </mxGeometry>
        </mxCell>
        <mxCell id="CNSOVZ5Ffk4rTk_nyZbC-8" value="" style="endArrow=none;html=1;rounded=0;exitX=0.25;exitY=0;exitDx=0;exitDy=0;" edge="1" parent="1">
          <mxGeometry width="50" height="50" relative="1" as="geometry">
            <mxPoint x="160" y="160" as="sourcePoint" />
            <mxPoint x="160" y="120" as="targetPoint" />
          </mxGeometry>
        </mxCell>
        <mxCell id="CNSOVZ5Ffk4rTk_nyZbC-9" value="Entity" style="whiteSpace=wrap;html=1;align=center;" vertex="1" parent="1">
          <mxGeometry x="30" y="80" width="100" height="40" as="geometry" />
        </mxCell>
      </root>
    </mxGraphModel>
  </diagram>
</mxfile>
